<?xml version="1.0" encoding="UTF-8" standalone="no"?>
<!-- Created with Inkscape (http://www.inkscape.org/) -->

<svg
   width="300"
   height="68.679581"
   viewBox="0 0 300 68.679584"
   version="1.1"
   id="svg5"
   xmlns:xlink="http://www.w3.org/1999/xlink"
   xmlns="http://www.w3.org/2000/svg"
   xmlns:svg="http://www.w3.org/2000/svg">
  <defs
     id="defs2">
    <linearGradient
       id="linearGradient78252">
      <stop
         style="stop-color:#b3b3b3;stop-opacity:1"
         offset="0"
         id="stop78248" />
      <stop
         style="stop-color:#ffffff;stop-opacity:1"
         offset="1"
         id="stop78250" />
    </linearGradient>
    <linearGradient
       id="linearGradient77479">
      <stop
         style="stop-color:#00d6ff;stop-opacity:1"
         offset="0"
         id="stop77475" />
      <stop
         style="stop-color:#0088a4;stop-opacity:1"
         offset="1"
         id="stop77477" />
    </linearGradient>
    <linearGradient
       id="linearGradient52743">
      <stop
         style="stop-color:#007d94;stop-opacity:1"
         offset="0"
         id="stop52739" />
      <stop
         style="stop-color:#00d0f8;stop-opacity:1"
         offset="1"
         id="stop52741" />
    </linearGradient>
    <linearGradient
       id="linearGradient51621">
      <stop
         style="stop-color:#000000;stop-opacity:1"
         offset="0"
         id="stop51617" />
      <stop
         style="stop-color:#4d4d4d;stop-opacity:1"
         offset="1"
         id="stop51619" />
    </linearGradient>
    <linearGradient
       xlink:href="#linearGradient51621"
       id="linearGradient51623"
       x1="59.80275"
       y1="98.464523"
       x2="59.80275"
       y2="78.745155"
       gradientUnits="userSpaceOnUse" />
    <linearGradient
       xlink:href="#linearGradient52743"
       id="linearGradient67960"
       gradientUnits="userSpaceOnUse"
       x1="129.74153"
       y1="98.146622"
       x2="129.74153"
       y2="79.156036"
       gradientTransform="matrix(1.553718,0,0,1.553718,-74.221767,-48.514415)" />
    <linearGradient
       xlink:href="#linearGradient52743"
       id="linearGradient67970"
       gradientUnits="userSpaceOnUse"
       x1="129.74153"
       y1="98.146622"
       x2="129.74153"
       y2="79.156036"
       gradientTransform="matrix(1.553718,0,0,1.553718,-54.208403,-48.514415)" />
    <linearGradient
       xlink:href="#linearGradient52743"
       id="linearGradient67980"
       gradientUnits="userSpaceOnUse"
       x1="129.74153"
       y1="98.146622"
       x2="129.74153"
       y2="79.156036"
       gradientTransform="matrix(1.8183523,0,0,1.8183523,-98.531078,-74.595653)" />
    <linearGradient
       xlink:href="#linearGradient78252"
       id="linearGradient78054"
       gradientUnits="userSpaceOnUse"
       x1="36.305408"
       y1="98.108818"
       x2="36.305408"
       y2="78.189766"
       gradientTransform="scale(3.7795276)" />
    <linearGradient
       xlink:href="#linearGradient77479"
       id="linearGradient1604"
       gradientUnits="userSpaceOnUse"
       gradientTransform="scale(3.7795276)"
       x1="67.624809"
       y1="89.570763"
       x2="116.88572"
       y2="89.57061" />
  </defs>
  <g
     id="layer1">
    <g
       aria-label="JUMELAB"
       id="text3026"
       style="font-size:27.5426px;line-height:1.4;letter-spacing:-1.42868px;word-spacing:0px;fill:url(#linearGradient51623);fill-opacity:1;stroke-width:0.688568" />
    <g
       id="g77722">
      <g
         id="g78657"
         transform="matrix(1.950437,0,0,1.9504331,-1.2306657,-134.55999)">
        <path
           id="path31619"
           style="font-weight:500;font-size:27.5426px;line-height:1.4;font-family:Ubuntu;-inkscape-font-specification:'Ubuntu, Medium';letter-spacing:-1.42868px;word-spacing:0px;fill:url(#linearGradient78054);fill-opacity:1;stroke-width:2.60246"
           d="m 33.925781,298.66602 v 47.57226 c 0,5.4131 -1.006969,9.23042 -3.019531,11.45117 -2.012562,2.22076 -5.238172,3.33008 -9.679688,3.33008 -2.637149,0 -5.240842,-0.51957 -7.808593,-1.56055 -2.498353,-1.11038 -4.6146427,-2.25577 -6.3496096,-3.43554 l -4.6835938,10.30468 c 1.8043656,1.45738 4.3719883,2.84549 7.7031254,4.16407 3.400535,1.24917 7.39039,1.875 11.970703,1.875 4.927306,0 8.987348,-0.65994 12.179687,-1.97852 3.261738,-1.31857 5.829361,-3.1239 7.703125,-5.41406 1.943164,-2.29015 3.295208,-4.96208 4.058594,-8.01563 0.763384,-3.05354 1.146484,-6.34933 1.146484,-9.88867 v -48.40429 z m 24.060547,0 v 45.07421 c 0,4.16393 0.553683,7.97929 1.664063,11.44922 1.110377,3.46994 2.811405,6.48889 5.101562,9.05664 2.359554,2.56775 5.308323,4.58169 8.847656,6.03907 3.539334,1.38797 7.773868,2.08203 12.701172,2.08203 4.927307,0 9.194004,-0.69406 12.802735,-2.08203 3.608734,-1.45738 6.559454,-3.47132 8.849604,-6.03907 2.35956,-2.56775 4.09471,-5.5867 5.20508,-9.05664 1.17978,-3.46993 1.76953,-7.28529 1.76953,-11.44922 v -45.07421 h -13.2207 v 43.82421 c 0,3.26174 -0.38115,6.07209 -1.14453,8.43165 -0.693987,2.29015 -1.735073,4.16372 -3.123047,5.62109 -1.318576,1.45737 -2.915299,2.53453 -4.789062,3.22851 -1.873764,0.69399 -3.955937,1.04102 -6.246094,1.04102 -2.290157,0 -4.37233,-0.34703 -6.246094,-1.04102 -1.804366,-0.69398 -3.401089,-1.77114 -4.789062,-3.22851 -1.318574,-1.45737 -2.359661,-3.33094 -3.123047,-5.62109 -0.693987,-2.35956 -1.041016,-5.16991 -1.041016,-8.43165 v -43.82421 z m 71.839842,0 c -0.62459,4.9967 -1.21434,10.4429 -1.76953,16.34179 -0.55519,5.89889 -1.07476,12.00699 -1.56055,18.32227 -0.41639,6.24588 -0.8336,12.56063 -1.25,18.94531 -0.34699,6.38468 -0.6599,12.56101 -0.9375,18.5293 h 12.90821 c 0.27759,-8.39724 0.5905,-17.03689 0.9375,-25.91992 0.41639,-8.88303 1.00614,-17.48857 1.76953,-25.81641 0.76338,1.52677 1.66605,3.43445 2.70703,5.72461 1.04098,2.22076 2.1503,4.61584 3.33008,7.18359 1.17977,2.56775 2.35928,5.23968 3.53906,8.01563 1.24918,2.77594 2.43064,5.48199 3.54102,8.11914 1.17977,2.56775 2.25498,4.99695 3.22656,7.28711 0.97158,2.29015 1.80406,4.23391 2.49804,5.83008 h 9.78516 c 0.69399,-1.59617 1.52647,-3.50581 2.49805,-5.72657 0.97158,-2.29015 2.01267,-4.71936 3.12305,-7.28711 1.17977,-2.63715 2.35928,-5.34319 3.53906,-8.11914 1.24917,-2.77594 2.46475,-5.44787 3.64453,-8.01562 1.17978,-2.63715 2.2891,-5.06635 3.33008,-7.28711 1.04098,-2.22076 1.94364,-4.12844 2.70703,-5.72461 0.76338,8.32784 1.31902,16.93338 1.66601,25.81641 0.41639,8.88303 0.76342,17.52268 1.04102,25.91992 h 12.9082 c -0.27759,-5.96829 -0.62462,-12.07443 -1.04101,-18.32031 -0.347,-6.31528 -0.76421,-12.5618 -1.25,-18.73829 -0.4164,-6.24588 -0.90185,-12.31791 -1.45703,-18.21679 -0.55519,-5.96829 -1.14495,-11.58899 -1.76954,-16.86328 h -11.86718 c -1.52677,2.63715 -3.2278,5.86276 -5.10157,9.67968 -1.87376,3.81693 -3.78144,7.84286 -5.7246,12.07618 -1.94317,4.16392 -3.8528,8.43257 -5.72657,12.80468 -1.87376,4.30272 -3.60695,8.29258 -5.20312,11.97071 -1.59617,-3.67813 -3.36739,-7.66799 -5.31055,-11.97071 -1.87377,-4.37211 -3.78145,-8.64076 -5.72461,-12.80468 -1.94316,-4.23332 -3.85084,-8.25925 -5.72461,-12.07618 -1.87376,-3.81692 -3.57479,-7.04253 -5.10156,-9.67968 z m 83.08399,0 v 72.13867 h 48.82226 v -11.13867 h -35.70703 v -21.13086 h 29.56445 v -10.93164 h -29.56445 v -17.80079 h 33.20899 v -11.13671 z"
           transform="scale(0.26458333)" />
        <path
           id="path31627"
           style="font-weight:500;font-size:27.5426px;line-height:1.4;font-family:Ubuntu;-inkscape-font-specification:'Ubuntu, Medium';letter-spacing:-1.42868px;word-spacing:0px;fill:url(#linearGradient1604);fill-opacity:1;stroke-width:2.60246"
           d="m 407.7168,297.93555 c -1.59617,0 -3.29719,0.0361 -5.10157,0.10547 -1.73498,0.0694 -3.50424,0.17371 -5.30859,0.3125 -1.80437,0.13879 -3.57361,0.34545 -5.30859,0.62304 -1.73496,0.2082 -3.3658,0.45092 -4.89258,0.72852 v 70.05859 c 2.91475,0.76338 6.31483,1.24883 10.20117,1.45703 3.88631,0.2776 7.73774,0.41797 11.55469,0.41797 11.17316,0 19.46774,-1.83945 24.88086,-5.51758 5.41309,-3.74752 8.11914,-9.3341 8.11914,-16.75976 0,-4.37212 -1.04108,-7.98083 -3.12305,-10.82617 -2.08196,-2.84535 -5.30953,-4.99771 -9.68164,-6.45508 2.91475,-1.45738 5.16946,-3.39917 6.76563,-5.82813 1.66556,-2.42895 2.5,-5.34556 2.5,-8.74609 0,-3.67813 -0.76424,-6.76532 -2.29102,-9.26367 -1.52675,-2.49836 -3.67716,-4.51034 -6.45313,-6.03711 -2.70654,-1.52677 -5.93411,-2.60393 -9.68164,-3.22852 -3.74752,-0.69398 -7.80758,-1.04101 -12.17968,-1.04101 z m -139.20508,0.73047 v 72.13867 h 44.66992 0.92383 12.71484 c 0.97159,-2.77595 1.94248,-5.55218 2.91407,-8.32813 1.04098,-2.84534 2.04795,-5.72393 3.01953,-8.63867 h 30.39648 c 0.97158,2.91474 1.9766,5.75921 3.01758,8.53516 1.04098,2.77594 2.04795,5.58629 3.01953,8.43164 h 14.15625 c -2.70654,-7.70326 -5.30829,-14.81637 -7.80664,-21.33985 -2.42895,-6.52347 -4.82209,-12.69981 -7.18164,-18.52929 -2.29016,-5.82949 -4.58094,-11.38195 -6.87109,-16.65625 -2.29016,-5.2743 -4.64918,-10.47778 -7.07813,-15.61328 h -12.38867 c -2.42896,5.1355 -4.78797,10.33898 -7.07813,15.61328 -2.29015,5.2743 -4.61505,10.82676 -6.97461,16.65625 -2.29015,5.82948 -4.64917,12.00582 -7.07812,18.52929 -2.14908,5.77183 -4.41486,12.03313 -6.78125,18.72852 v -8.73438 h -32.47852 v -60.79296 z m 140.87109,9.99218 c 4.71912,0 8.53645,0.72818 11.45117,2.18555 2.98417,1.45737 4.47461,3.92264 4.47461,7.39258 0,3.67813 -1.42222,6.24575 -4.26757,7.70312 -2.84536,1.38798 -6.76699,2.08203 -11.76368,2.08203 h -9.26367 v -18.94726 c 1.1104,-0.13881 2.42833,-0.24311 3.95508,-0.3125 1.59617,-0.0694 3.40149,-0.10352 5.41406,-0.10352 z m -61.43164,3.95508 c 1.52677,3.53933 3.3321,7.98248 5.41406,13.32617 2.08196,5.3437 4.23237,11.10282 6.45313,17.2793 h -23.73438 c 2.22076,-6.17648 4.33705,-11.90148 6.34961,-17.17578 2.08196,-5.2743 3.92141,-9.75156 5.51758,-13.42969 z m 52.0625,25.71289 h 11.55469 c 5.2743,0 9.40258,0.79837 12.38672,2.39453 2.98414,1.59617 4.47656,4.44064 4.47656,8.53516 0,2.29016 -0.51959,4.16568 -1.56055,5.62305 -0.97159,1.45737 -2.32556,2.63688 -4.06054,3.53906 -1.66557,0.83278 -3.67755,1.42254 -6.03711,1.76953 -2.29014,0.34699 -4.78955,0.51953 -7.4961,0.51953 -1.38799,0 -2.91451,-0.0341 -4.58007,-0.10351 -1.66557,-0.0694 -3.22621,-0.17369 -4.6836,-0.3125 z"
           transform="scale(0.26458333)" />
        <g
           id="g68163">
          <path
             id="path18443"
             style="fill:url(#linearGradient67960);fill-opacity:1;stroke:none;stroke-width:0.822176;stroke-miterlimit:4;stroke-dasharray:none;stroke-opacity:1;paint-order:fill markers stroke"
             d="m 127.08801,74.176596 c -1.43567,0.05295 -2.75689,1.126882 -3.09782,2.52383 -0.34428,1.288891 0.15747,2.759059 1.24619,3.540412 0.21091,0.168765 0.43583,0.318672 0.65689,0.473564 -0.27561,0.365608 -0.75639,0.429154 -1.11967,0.674539 -1.65376,0.931809 -2.65429,2.883107 -2.43789,4.770164 0.12911,1.382823 0.88149,2.679867 2.00119,3.498126 0.19434,0.154378 0.39811,0.296157 0.5977,0.443557 -0.43416,0.382799 -1.01933,0.518045 -1.48884,0.850199 -2.04772,1.258409 -3.36322,3.605064 -3.36679,6.009065 -0.0409,2.404153 1.22826,4.778238 3.25354,6.075028 1.31748,0.86716 2.92708,1.27059 4.49803,1.1446 0.70415,-0.0577 1.46145,-0.2318 2.1157,-0.5026 2.26523,-0.89456 3.98518,-3.022 4.37622,-5.427032 0.12243,-0.664026 0.13579,-1.423591 0.0597,-2.066429 -0.24802,-2.177082 -1.55247,-4.201322 -3.44203,-5.314043 -0.34464,-0.230676 -0.74268,-0.366234 -1.10089,-0.564288 -0.21399,-0.165154 -0.0454,-0.459291 0.16812,-0.527718 1.35694,-0.914988 2.22814,-2.519295 2.18864,-4.163276 0.009,-1.835075 -1.11804,-3.602918 -2.76956,-4.394025 -0.22685,-0.151488 -0.64644,-0.161508 -0.68381,-0.493518 0.0598,-0.294808 0.42668,-0.331387 0.60545,-0.538556 1.0659,-0.829359 1.54404,-2.328295 1.13133,-3.618008 -0.3795,-1.323274 -1.64191,-2.320969 -3.01603,-2.387953 -0.12477,-0.0096 -0.25018,-0.0092 -0.37529,-0.0056 z" />
          <circle
             style="fill:#333333;fill-opacity:1;stroke:none;stroke-width:0.957138;stroke-miterlimit:4;stroke-dasharray:none;stroke-opacity:1;paint-order:fill markers stroke"
             id="circle18445"
             cx="127.25394"
             cy="97.178574"
             r="3.3443415" />
          <circle
             style="fill:#333333;fill-opacity:1;stroke:none;stroke-width:0.569868;stroke-miterlimit:4;stroke-dasharray:none;stroke-opacity:1;paint-order:fill markers stroke"
             id="circle18447"
             cx="127.25394"
             cy="85.779297"
             r="1.9911778" />
          <circle
             style="fill:#333333;fill-opacity:1;stroke:none;stroke-width:0.351926;stroke-miterlimit:4;stroke-dasharray:none;stroke-opacity:1;paint-order:fill markers stroke"
             id="circle18449"
             cx="127.25394"
             cy="77.671341"
             r="1.2296664" />
          <path
             id="path18433"
             style="fill:url(#linearGradient67970);fill-opacity:1;stroke:none;stroke-width:0.822176;stroke-miterlimit:4;stroke-dasharray:none;stroke-opacity:1;paint-order:fill markers stroke"
             d="m 147.10137,74.176596 c -1.43567,0.05295 -2.75689,1.126882 -3.09782,2.52383 -0.34427,1.288891 0.15747,2.759059 1.24619,3.540412 0.21092,0.168765 0.43583,0.318672 0.6569,0.473564 -0.27562,0.365608 -0.7564,0.429154 -1.11967,0.674539 -1.65377,0.931809 -2.6543,2.883107 -2.4379,4.770164 0.12912,1.382823 0.88149,2.679867 2.00119,3.498126 0.19434,0.154378 0.39811,0.296157 0.5977,0.443557 -0.43415,0.382799 -1.01933,0.518045 -1.48883,0.850199 -2.04772,1.258409 -3.36323,3.605064 -3.3668,6.009065 -0.0409,2.404153 1.22826,4.778238 3.25355,6.075028 1.31747,0.86716 2.92708,1.27059 4.49803,1.1446 0.70414,-0.0577 1.46144,-0.2318 2.11569,-0.5026 2.26523,-0.89456 3.98518,-3.022 4.37622,-5.427032 0.12243,-0.664026 0.1358,-1.423591 0.0597,-2.066429 -0.24802,-2.177082 -1.55247,-4.201322 -3.44202,-5.314043 -0.34465,-0.230676 -0.74268,-0.366234 -1.10089,-0.564288 -0.21399,-0.165154 -0.0454,-0.459291 0.16811,-0.527718 1.35694,-0.914988 2.22814,-2.519295 2.18865,-4.163276 0.009,-1.835075 -1.11804,-3.602918 -2.76957,-4.394025 -0.22684,-0.151488 -0.64644,-0.161508 -0.68381,-0.493518 0.0598,-0.294808 0.42669,-0.331387 0.60546,-0.538556 1.06589,-0.829359 1.54404,-2.328295 1.13132,-3.618008 -0.37949,-1.323274 -1.64191,-2.320969 -3.01603,-2.387953 -0.12476,-0.0096 -0.25018,-0.0092 -0.37528,-0.0056 z" />
          <circle
             style="fill:#333333;fill-opacity:1;stroke:none;stroke-width:0.957138;stroke-miterlimit:4;stroke-dasharray:none;stroke-opacity:1;paint-order:fill markers stroke"
             id="circle18435"
             cx="147.2673"
             cy="97.178574"
             r="3.3443415" />
          <circle
             style="fill:#333333;fill-opacity:1;stroke:none;stroke-width:0.569868;stroke-miterlimit:4;stroke-dasharray:none;stroke-opacity:1;paint-order:fill markers stroke"
             id="circle18437"
             cx="147.2673"
             cy="85.779297"
             r="1.9911778" />
          <circle
             style="fill:#333333;fill-opacity:1;stroke:none;stroke-width:0.351926;stroke-miterlimit:4;stroke-dasharray:none;stroke-opacity:1;paint-order:fill markers stroke"
             id="circle18439"
             cx="147.2673"
             cy="77.671341"
             r="1.2296664" />
          <path
             id="path14096"
             style="fill:url(#linearGradient67980);fill-opacity:1;stroke:none;stroke-width:0.962212;stroke-miterlimit:4;stroke-dasharray:none;stroke-opacity:1;paint-order:fill markers stroke"
             d="m 137.06643,68.992489 c -1.68019,0.06197 -3.22645,1.318817 -3.62545,2.953697 -0.40291,1.50842 0.18429,3.228992 1.45845,4.143427 0.24684,0.197509 0.51006,0.372949 0.76878,0.554223 -0.32256,0.42788 -0.88523,0.502249 -1.31038,0.789428 -1.93544,1.090519 -3.10638,3.374168 -2.85312,5.582635 0.1511,1.61835 1.03162,3.13631 2.34204,4.093938 0.22743,0.180671 0.46591,0.3466 0.6995,0.519105 -0.50811,0.447998 -1.19295,0.60628 -1.74242,0.995008 -2.3965,1.472745 -3.93606,4.21909 -3.94024,7.032548 -0.0478,2.813637 1.43746,5.592082 3.8077,7.109742 1.54187,1.01486 3.42563,1.487 5.26415,1.33956 0.82407,-0.0675 1.71036,-0.27128 2.47605,-0.58821 2.65105,-1.04692 4.66394,-3.536715 5.12159,-6.351379 0.14328,-0.777126 0.15892,-1.666062 0.0698,-2.418391 -0.29026,-2.547889 -1.8169,-4.916904 -4.02828,-6.219148 -0.40335,-0.269965 -0.86918,-0.428611 -1.2884,-0.660398 -0.25044,-0.193284 -0.0531,-0.53752 0.19675,-0.617602 1.58806,-1.070831 2.60764,-2.948389 2.56142,-4.872379 0.0109,-2.14763 -1.30847,-4.216579 -3.24129,-5.142429 -0.26548,-0.177289 -0.75654,-0.189016 -0.80027,-0.577576 0.07,-0.34502 0.49935,-0.387829 0.70857,-0.630285 1.24745,-0.970618 1.80703,-2.724857 1.32402,-4.234238 -0.44413,-1.548658 -1.92156,-2.716284 -3.52973,-2.794677 -0.14602,-0.01127 -0.29279,-0.01073 -0.43921,-0.0065 z" />
          <circle
             style="fill:#333333;fill-opacity:1;stroke:none;stroke-width:1.12016;stroke-miterlimit:4;stroke-dasharray:none;stroke-opacity:1;paint-order:fill markers stroke"
             id="path18145"
             cx="137.26062"
             cy="95.912231"
             r="3.9139607" />
          <circle
             style="fill:#333333;fill-opacity:1;stroke:none;stroke-width:0.66693;stroke-miterlimit:4;stroke-dasharray:none;stroke-opacity:1;paint-order:fill markers stroke"
             id="circle18227"
             cx="137.26062"
             cy="82.571404"
             r="2.3303216" />
          <circle
             style="fill:#333333;fill-opacity:1;stroke:none;stroke-width:0.411868;stroke-miterlimit:4;stroke-dasharray:none;stroke-opacity:1;paint-order:fill markers stroke"
             id="circle18229"
             cx="137.26062"
             cy="73.082474"
             r="1.4391071" />
        </g>
      </g>
    </g>
  </g>
</svg>
